# xmcd
#
# Track frame offsets: 
#        150
#        21047
#        39312
#        57540
#        76600
#        91390
#        112647
#        130202
#        151377
#        161592
#
# Disc length: 2426 seconds
#
# Revision: 3
# Processed by: cddbd v1.4PL0 Copyright (c) Steve Scherf et al.
# Submitted via: ExactAudioCopy v0.90b4
#
DISCID=6a09780a
DTITLE=MAYALL John - The Last Of The British Blues
DYEAR=1978
DGENRE=Blues
TTITLE0=Tucson Lady
TTITLE1=Parchman Farm
TTITLE2=There's Only Now
TTITLE3=The Teaser
TTITLE4=Hideaway
TTITLE5=The Bear
TTITLE6=Lonely Birthday
TTITLE7=Lowdown Blues
TTITLE8=Another Man
TTITLE9=It Must Be Three
EXTD=Recorded Live from Baltimore, Cincinnati and New York\n\nJohn May
EXTD=all - vocals, harmonica, clavinet, guitar\nJames Quill Smith - le
EXTD=ad guitar, vocals\nSteve Thompson - bass guitar\nSoko Richardson 
EXTD=drums\n\nPepper Watkins,  Marty Gwynn, Donna Washburn, Marilyn\n
EXTD=Scott, Judy Brown, Coleen and Maureen - backing vocals
EXTT0=
EXTT1=
EXTT2=
EXTT3=
EXTT4=
EXTT5=
EXTT6=
EXTT7=
EXTT8=A short, but awesome harmonica blues tune\n
EXTT9=
PLAYORDER=
